<svg xmlns="http://www.w3.org/2000/svg" width="400" height="260" viewBox="0 0 400 260">
  <defs>
    <linearGradient id="bg1" x1="0%" y1="0%" x2="100%" y2="100%">
      <stop offset="0%" style="stop-color:#040a14"/>
      <stop offset="100%" style="stop-color:#071828"/>
    </linearGradient>
  </defs>
  <rect width="400" height="260" fill="url(#bg1)" rx="10"/>
  <!-- Neural network nodes -->
  <circle cx="60" cy="80"  r="14" fill="none" stroke="#00f5ff" stroke-width="1.5" opacity="0.8"/>
  <circle cx="60" cy="130" r="14" fill="none" stroke="#00f5ff" stroke-width="1.5" opacity="0.8"/>
  <circle cx="60" cy="180" r="14" fill="none" stroke="#00f5ff" stroke-width="1.5" opacity="0.8"/>
  <circle cx="160" cy="65"  r="14" fill="none" stroke="#9b30ff" stroke-width="1.5" opacity="0.8"/>
  <circle cx="160" cy="110" r="14" fill="none" stroke="#9b30ff" stroke-width="1.5" opacity="0.8"/>
  <circle cx="160" cy="155" r="14" fill="none" stroke="#9b30ff" stroke-width="1.5" opacity="0.8"/>
  <circle cx="160" cy="200" r="14" fill="none" stroke="#9b30ff" stroke-width="1.5" opacity="0.8"/>
  <circle cx="260" cy="105" r="14" fill="none" stroke="#00f5ff" stroke-width="1.5" opacity="0.8"/>
  <circle cx="260" cy="155" r="14" fill="none" stroke="#00f5ff" stroke-width="1.5" opacity="0.8"/>
  <circle cx="340" cy="130" r="16" fill="#00f5ff" opacity="0.15" stroke="#00f5ff" stroke-width="2"/>
  <!-- Connections -->
  <g stroke="#00f5ff" stroke-width="0.6" opacity="0.25">
    <line x1="74" y1="80"  x2="146" y2="65"/><line x1="74" y1="80"  x2="146" y2="110"/>
    <line x1="74" y1="80"  x2="146" y2="155"/><line x1="74" y1="80"  x2="146" y2="200"/>
    <line x1="74" y1="130" x2="146" y2="65"/><line x1="74" y1="130" x2="146" y2="110"/>
    <line x1="74" y1="130" x2="146" y2="155"/><line x1="74" y1="130" x2="146" y2="200"/>
    <line x1="74" y1="180" x2="146" y2="65"/><line x1="74" y1="180" x2="146" y2="110"/>
    <line x1="74" y1="180" x2="146" y2="155"/><line x1="74" y1="180" x2="146" y2="200"/>
    <line x1="174" y1="65"  x2="246" y2="105"/><line x1="174" y1="65"  x2="246" y2="155"/>
    <line x1="174" y1="110" x2="246" y2="105"/><line x1="174" y1="110" x2="246" y2="155"/>
    <line x1="174" y1="155" x2="246" y2="105"/><line x1="174" y1="155" x2="246" y2="155"/>
    <line x1="174" y1="200" x2="246" y2="105"/><line x1="174" y1="200" x2="246" y2="155"/>
    <line x1="274" y1="105" x2="324" y2="130"/><line x1="274" y1="155" x2="324" y2="130"/>
  </g>
  <text x="200" y="240" text-anchor="middle" font-family="monospace" font-size="13" fill="#00f5ff" letter-spacing="3" opacity="0.9">AI &amp; MACHINE LEARNING</text>
</svg>
